<?xml version="1.0" encoding="UTF-8"?>
<svg id="overcast" xmlns="http://www.w3.org/2000/svg" xmlns:xlink="http://www.w3.org/1999/xlink" viewBox="0 0 512 512">
  <defs>
    <style>
      .cls-1 {
        fill: url(#linear-gradient-2);
      }

      .cls-2 {
        fill: url(#linear-gradient-4);
      }

      .cls-3 {
        fill: #fac610;
      }

      .cls-4 {
        fill: url(#linear-gradient-3);
      }

      .cls-5 {
        fill: url(#linear-gradient);
      }

      .cls-6 {
        fill: #fdd403;
      }
    </style>
    <linearGradient id="linear-gradient" x1="282.22" y1="139.88" x2="54.14" y2="344.6" gradientUnits="userSpaceOnUse">
      <stop offset="0" stop-color="#fff"/>
      <stop offset="1" stop-color="#b8c0d8"/>
    </linearGradient>
    <linearGradient id="linear-gradient-2" x1="228.03" y1="234.47" x2="37.02" y2="405.93" xlink:href="#linear-gradient"/>
    <linearGradient id="linear-gradient-3" x1="221.86" y1="356.51" x2="92.79" y2="472.37" xlink:href="#linear-gradient"/>
    <linearGradient id="linear-gradient-4" x1="426.5" y1="301.42" x2="221.77" y2="485.19" xlink:href="#linear-gradient"/>
  </defs>
  <path id="cloud" class="cls-5" d="M270.71,140.11h-.34c-5.24-37.59-37.49-66.54-76.53-66.54h-11.26c-39.41,0-71.91,29.51-76.67,67.63-36.54,6.14-64.39,37.91-64.39,76.2v11.26c0,38.09,27.56,69.72,63.81,76.1,4.38.77,8.88,1.19,13.48,1.19h151.89c.11,0,.23,0,.34,0,42.53-.18,76.95-34.71,76.95-77.28v-11.26c0-42.69-34.6-77.29-77.29-77.29Z"/>
  <g id="sun">
    <circle id="sun-2" data-name="sun" class="cls-6" cx="293.95" cy="252.23" r="129.04"/>
    <path id="shadow" class="cls-3" d="M378.25,297.19c-71.27,0-129.04-57.77-129.04-129.04,0-13.61,2.11-26.72,6.02-39.04-52.35,16.45-90.32,65.35-90.32,123.13,0,71.27,57.77,129.04,129.04,129.04,57.66,0,106.48-37.82,123.02-90-12.22,3.84-25.23,5.91-38.72,5.91Z"/>
    <g id="rays_long">
      <rect class="cls-6" x="283.13" y="61.51" width="21.65" height="38.3" rx="9.89" ry="9.89"/>
      <rect class="cls-6" x="111.55" y="233.08" width="21.65" height="38.3" rx="9.89" ry="9.89" transform="translate(-129.86 374.61) rotate(-90)"/>
      <rect class="cls-6" x="161.8" y="354.41" width="21.65" height="38.3" rx="9.89" ry="9.89" transform="translate(30.55 759.77) rotate(-135)"/>
      <rect class="cls-6" x="283.13" y="404.66" width="21.65" height="38.3" rx="9.89" ry="9.89" transform="translate(587.9 847.62) rotate(-180)"/>
      <rect class="cls-6" x="404.45" y="354.41" width="21.65" height="38.3" rx="9.89" ry="9.89" transform="translate(973.06 344.06) rotate(135)"/>
      <rect class="cls-6" x="454.71" y="233.08" width="21.65" height="38.3" rx="9.89" ry="9.89" transform="translate(717.76 -213.3) rotate(90)"/>
      <rect class="cls-6" x="404.45" y="111.76" width="21.65" height="38.3" rx="9.89" ry="9.89" transform="translate(214.2 -255.3) rotate(45)"/>
    </g>
    <g id="rays_short">
      <circle class="cls-6" cx="143.13" cy="189.76" r="10.82"/>
      <circle class="cls-6" cx="143.13" cy="314.71" r="10.82"/>
      <circle class="cls-6" cx="231.48" cy="403.06" r="10.82"/>
      <circle class="cls-6" cx="356.42" cy="403.06" r="10.82"/>
      <circle class="cls-6" cx="444.78" cy="189.76" r="10.82"/>
      <circle class="cls-6" cx="356.42" cy="101.41" r="10.82"/>
    </g>
  </g>
  <path id="cloud-2" data-name="cloud" class="cls-1" d="M218.39,234.66h-.29c-4.39-31.49-31.4-55.73-64.1-55.73h-9.43c-33.01,0-60.23,24.71-64.21,56.64-30.6,5.15-53.93,31.75-53.93,63.82v9.43c0,31.9,23.08,58.39,53.45,63.73,3.67.65,7.43,1,11.29,1h127.22c.1,0,.19,0,.28,0,35.62-.15,64.45-29.07,64.45-64.73v-9.43c0-35.75-28.98-64.73-64.73-64.73Z"/>
  <path id="cloud-3" data-name="cloud" class="cls-4" d="M215.35,356.64h-.19c-2.96-21.28-21.22-37.66-43.31-37.66h-6.37c-22.3,0-40.7,16.7-43.39,38.27-20.68,3.48-36.44,21.45-36.44,43.12v6.37c0,21.55,15.6,39.46,36.12,43.07,2.48.44,5.02.68,7.63.68h85.96c.06,0,.13,0,.19,0,24.07-.1,43.55-19.64,43.55-43.74v-6.37c0-24.16-19.58-43.74-43.74-43.74Z"/>
  <path id="cloud-4" data-name="cloud" class="cls-2" d="M416.17,301.62h-.31c-4.7-33.75-33.66-59.73-68.7-59.73h-10.11c-35.38,0-64.55,26.49-68.82,60.71-32.8,5.52-57.8,34.03-57.8,68.4v10.11c0,34.19,24.74,62.58,57.29,68.31,3.93.69,7.97,1.07,12.1,1.07h136.35c.1,0,.2,0,.3,0,38.18-.17,69.08-31.16,69.08-69.37v-10.11c0-38.32-31.06-69.38-69.38-69.38Z"/>
</svg>