<?xml version="1.0" encoding="UTF-8"?>
<svg id="partly_cloudy" xmlns="http://www.w3.org/2000/svg" xmlns:xlink="http://www.w3.org/1999/xlink" viewBox="0 0 512 512">
  <defs>
    <style>
      .cls-1 {
        fill: url(#linear-gradient-2);
      }

      .cls-2 {
        fill: #fac610;
      }

      .cls-3 {
        fill: url(#linear-gradient);
      }

      .cls-4 {
        fill: #fdd403;
      }
    </style>
    <linearGradient id="linear-gradient" x1="437.24" y1="116.01" x2="295.6" y2="243.15" gradientUnits="userSpaceOnUse">
      <stop offset="0" stop-color="#fff"/>
      <stop offset="1" stop-color="#b8c0d8"/>
    </linearGradient>
    <linearGradient id="linear-gradient-2" x1="176.38" y1="320.07" x2="34.74" y2="447.21" xlink:href="#linear-gradient"/>
  </defs>
  <g id="sun">
    <circle id="sun-2" data-name="sun" class="cls-4" cx="256" cy="256" r="155"/>
    <path id="shadow" class="cls-2" d="M136.48,256c0-79.6,60.01-145.18,137.26-153.98-5.82-.66-11.74-1.02-17.74-1.02-85.6,0-155,69.4-155,155s69.4,155,155,155c6,0,11.92-.35,17.74-1.02-77.25-8.8-137.26-74.38-137.26-153.98Z"/>
  </g>
  <g id="rays_long">
    <rect class="cls-4" x="243" y="26.9" width="26" height="46" rx="12" ry="12"/>
    <rect class="cls-4" x="97.27" y="87.27" width="26" height="46" rx="12" ry="12" transform="translate(-45.67 110.27) rotate(-45)"/>
    <rect class="cls-4" x="36.9" y="233" width="26" height="46" rx="12" ry="12" transform="translate(-206.1 305.9) rotate(-90)"/>
    <rect class="cls-4" x="97.27" y="378.73" width="26" height="46" rx="12" ry="12" transform="translate(-95.83 763.77) rotate(-135)"/>
    <rect class="cls-4" x="243" y="439.1" width="26" height="46" rx="12" ry="12" transform="translate(512 924.19) rotate(-180)"/>
    <rect class="cls-4" x="388.73" y="378.73" width="26" height="46" rx="12" ry="12" transform="translate(969.87 401.73) rotate(135)"/>
    <rect class="cls-4" x="449.1" y="233" width="26" height="46" rx="12" ry="12" transform="translate(718.1 -206.1) rotate(90)"/>
    <rect class="cls-4" x="388.73" y="87.27" width="26" height="46" rx="12" ry="12" transform="translate(195.64 -251.77) rotate(45)"/>
  </g>
  <g id="rays_short">
    <circle class="cls-4" cx="180.96" cy="74.83" r="13"/>
    <circle class="cls-4" cx="74.83" cy="180.96" r="13"/>
    <circle class="cls-4" cx="74.83" cy="331.04" r="13"/>
    <circle class="cls-4" cx="180.96" cy="437.17" r="13"/>
    <circle class="cls-4" cx="331.04" cy="437.17" r="13"/>
    <circle class="cls-4" cx="437.17" cy="331.04" r="13"/>
    <circle class="cls-4" cx="437.17" cy="180.96" r="13"/>
    <circle class="cls-4" cx="331.04" cy="74.83" r="13"/>
  </g>
  <path id="cloud" class="cls-3" d="M430.1,116.15h-.21c-3.25-23.35-23.29-41.32-47.53-41.32h-6.99c-24.48,0-44.66,18.32-47.61,42-22.69,3.82-39.99,23.54-39.99,47.32v6.99c0,23.65,17.11,43.3,39.63,47.26,2.72.48,5.51.74,8.37.74h94.33c.07,0,.14,0,.21,0,26.41-.11,47.79-21.56,47.79-47.99v-6.99c0-26.51-21.49-48-48-48Z"/>
  <path id="cloud-2" data-name="cloud" class="cls-1" d="M169.23,320.21h-.21c-3.25-23.35-23.29-41.32-47.53-41.32h-6.99c-24.48,0-44.66,18.32-47.61,42-22.69,3.82-39.99,23.54-39.99,47.32v6.99c0,23.65,17.11,43.3,39.63,47.26,2.72.48,5.51.74,8.37.74h94.33c.07,0,.14,0,.21,0,26.41-.11,47.79-21.56,47.79-47.99v-6.99c0-26.51-21.49-48-48-48Z"/>
</svg>