<svg width="32" height="32" viewBox="0 0 32 32" fill="none" xmlns="http://www.w3.org/2000/svg">
<g clip-path="url(#clip0_2_18)" filter="url(#filter0_d_2_18)">
<path d="M16 6.125C20.3492 6.125 23.875 9.65075 23.875 14C23.875 18.3492 20.3492 21.875 16 21.875C11.6508 21.875 8.125 18.3492 8.125 14C8.125 9.65075 11.6508 6.125 16 6.125Z" fill="url(#paint0_radial_2_18)"/>
<path d="M16 23.1875C16.7249 23.1875 17.3125 23.7751 17.3125 24.5V25.8125C17.3125 26.5374 16.7249 27.125 16 27.125C15.2751 27.125 14.6875 26.5374 14.6875 25.8125V24.5C14.6875 23.7751 15.2751 23.1875 16 23.1875ZM24.3528 20.4966L25.2808 21.4247C25.7934 21.9372 25.7934 22.7682 25.2808 23.2808C24.7683 23.7934 23.9372 23.7934 23.4247 23.2808L22.4966 22.3528C21.9841 21.8401 21.9841 21.0091 22.4966 20.4966C23.0091 19.984 23.8402 19.984 24.3528 20.4966ZM7.64723 20.4966C8.15979 19.984 8.99083 19.984 9.50339 20.4966C9.97652 20.9697 10.0129 21.7142 9.61257 22.2291L9.50339 22.3528L8.57531 23.2808C8.06275 23.7934 7.23171 23.7934 6.71916 23.2808C6.24601 22.8077 6.20962 22.0632 6.60997 21.5483L6.71916 21.4247L7.64723 20.4966ZM5.5 12.6875C6.22487 12.6875 6.8125 13.2751 6.8125 14C6.8125 14.6731 6.30582 15.2279 5.65306 15.3037L5.5 15.3125H4.1875C3.46263 15.3125 2.875 14.7249 2.875 14C2.875 13.3269 3.38168 12.7721 4.03444 12.6963L4.1875 12.6875H5.5ZM27.8125 12.6875C28.5374 12.6875 29.125 13.2751 29.125 14C29.125 14.7249 28.5374 15.3125 27.8125 15.3125H26.5C25.7751 15.3125 25.1875 14.7249 25.1875 14C25.1875 13.2751 25.7751 12.6875 26.5 12.6875H27.8125ZM6.71919 4.71916C7.19232 4.24603 7.93682 4.20963 8.4517 4.60997L8.57535 4.71916L9.50343 5.64724C10.016 6.15979 10.016 6.99083 9.50343 7.50339C9.03029 7.97652 8.2858 8.01291 7.77091 7.61257L7.64727 7.50339L6.71919 6.57531C6.20662 6.06275 6.20662 5.23171 6.71919 4.71916ZM25.2808 4.71918C25.7934 5.23174 25.7934 6.06277 25.2808 6.57533L24.3528 7.50341C23.8401 8.01597 23.0091 8.01597 22.4966 7.50341C21.984 6.99084 21.984 6.15982 22.4966 5.64725L23.4247 4.71918C23.9372 4.20661 24.7682 4.20661 25.2808 4.71918ZM16 0.875C16.7249 0.875 17.3125 1.46263 17.3125 2.1875V3.5C17.3125 4.22487 16.7249 4.8125 16 4.8125C15.2751 4.8125 14.6875 4.22487 14.6875 3.5V2.1875C14.6875 1.46263 15.2751 0.875 16 0.875Z" fill="url(#paint1_linear_2_18)"/>
</g>
<defs>
<filter id="filter0_d_2_18" x="0" y="0" width="32" height="32" filterUnits="userSpaceOnUse" color-interpolation-filters="sRGB">
<feFlood flood-opacity="0" result="BackgroundImageFix"/>
<feColorMatrix in="SourceAlpha" type="matrix" values="0 0 0 0 0 0 0 0 0 0 0 0 0 0 0 0 0 0 127 0" result="hardAlpha"/>
<feOffset dy="2"/>
<feGaussianBlur stdDeviation="1"/>
<feComposite in2="hardAlpha" operator="out"/>
<feColorMatrix type="matrix" values="0 0 0 0 0 0 0 0 0 0 0 0 0 0 0 0 0 0 0.25 0"/>
<feBlend mode="normal" in2="BackgroundImageFix" result="effect1_dropShadow_2_18"/>
<feBlend mode="normal" in="SourceGraphic" in2="effect1_dropShadow_2_18" result="shape"/>
</filter>
<radialGradient id="paint0_radial_2_18" cx="0" cy="0" r="1" gradientUnits="userSpaceOnUse" gradientTransform="translate(10.5313 8.09375) rotate(43.0203) scale(18.2501)">
<stop offset="0.193671" stop-color="#FFE475"/>
<stop offset="0.529275" stop-color="#FFB029"/>
<stop offset="0.780467" stop-color="#FF9100"/>
</radialGradient>
<linearGradient id="paint1_linear_2_18" x1="2.71094" y1="0.710938" x2="29.2891" y2="27.2891" gradientUnits="userSpaceOnUse">
<stop offset="0.166667" stop-color="#FFE475"/>
<stop offset="0.798611" stop-color="#FFBF29"/>
</linearGradient>
<clipPath id="clip0_2_18">
<rect width="28" height="28" fill="white" transform="translate(2)"/>
</clipPath>
</defs>
</svg>
